# AST/ASF file generated using VICON BodyLanguage
# -----------------------------------------------
:version 1.10
:name VICON
:units
  mass 1.0
  length 0.45
  angle deg
:documentation
   .ast/.asf automatically generated from VICON data using
   VICON BodyBuilder and BodyLanguage model FoxedUp or BRILLIANT.MOD
:root
   order TX TY TZ RX RY RZ
   axis XYZ
   position 0 0 0  
   orientation 0 0 0 
:bonedata
  begin
     id 1 
     name lhipjoint
     direction 0.707368 -0.647095 0.284426 
     length 2.60678 
     axis 0 0 0  XYZ
  end
  begin
     id 2 
     name lfemur
     direction 0.34202 -0.939693 0  
     length 6.63812  
     axis 0 0 20  XYZ
    dof rx ry rz
    limits (-160.0 20.0)
           (-70.0 70.0)
           (-60.0 70.0)
  end
  begin
     id 3 
     name ltibia
     direction 0.34202 -0.939693 0   
     length 7.51178   
     axis 0 0 20   XYZ
    dof rx
    limits (-10.0 170.0)
  end
  begin
     id 4 
     name lfoot
     direction 0.121251 -0.333133 0.935051   
     length 1.83716   
     axis -90 7.62852e-016 20   XYZ
    dof rx rz
    limits (-45.0 90.0)
           (-70.0 20.0)
  end
  begin
     id 5 
     name ltoes
     direction 1.53611e-011 -4.21962e-011 1   
     length 0.916133   
     axis -90 7.62852e-016 20   XYZ
    dof rx
    limits (-90.0 20.0)
  end
  begin
     id 6 
     name rhipjoint
     direction -0.692419 -0.660507 0.290321   
     length 2.55385  
     axis 0 0 0  XYZ 
  end
  begin
     id 7 
     name rfemur
     direction -0.34202 -0.939693 0   
     length 7.29079   
     axis 0 0 -20   XYZ
    dof rx ry rz
    limits (-160.0 20.0)
           (-70.0 70.0)
           (-70.0 60.0)
  end
  begin
     id 8 
     name rtibia
     direction -0.34202 -0.939693 0   
     length 7.47143   
     axis 0 0 -20   XYZ
    dof rx
    limits (-10.0 170.0)
 end
 begin
     id 9 
     name rfoot
     direction -0.119907 -0.329441 0.936532   
     length 1.79439  
     axis -90 -7.62852e-016 -20   XYZ
    dof rx rz
    limits (-45.0 90.0)
           (-20.0 70.0)
  end
  begin
     id 10 
     name rtoes
     direction -1.53571e-011 -4.21961e-011 1   
     length 0.896039   
     axis -90 -7.62852e-016 -20   XYZ
    dof rx
    limits (-90.0 20.0)
  end
  begin
     id 11 
     name lowerback
     direction 0.0367721 0.992912 -0.113016   
     length 1.73542   
     axis 0 0 0   XYZ
    dof rx ry rz
    limits (-20.0 45.0)
           (-30.0 30.0)
           (-30.0 30.0)
  end
  begin
     id 12 
     name upperback
     direction -0.000314626 0.990678 0.136227   
     length 1.7514   
     axis 0 0 0   XYZ
    dof rx ry rz
    limits (-20.0 45.0)
           (-30.0 30.0)
           (-30.0 30.0)
  end
  begin
     id 13 
     name thorax
     direction -0.0226159 0.981151 0.191917   
     length 1.71471   
     axis 0 0 0   XYZ
    dof rx ry rz
    limits (-20.0 45.0)
           (-30.0 30.0)
           (-30.0 30.0)
  end
  begin
     id 14 
     name lowerneck
     direction 0.0219333 0.998071 0.0580739   
     length 1.65882   
     axis 0 0 0   XYZ
    dof rx ry rz
    limits (-20.0 45.0)
           (-30.0 30.0)
           (-30.0 30.0)
  end
  begin
     id 15 
     name upperneck
     direction 0.0384529 0.980058 -0.194957   
     length 1.6612   
     axis 0 0 0   XYZ
    dof rx ry rz
    limits (-20.0 45.0)
           (-30.0 30.0)
           (-30.0 30.0)
  end
  begin
     id 16
     name head
     direction 0.00592123 0.997421 -0.0715234  
     length 1.68077  
     axis 0 0 0   XYZ
    dof rx ry rz
    limits (-20.0 45.0)
           (-30.0 30.0)
           (-30.0 30.0)
  end
  begin
     id 17 
     name lclavicle
     direction 0.904803 0.417826 0.0821728  
     length 3.42227  
     axis 0 0 0   XYZ
    dof ry rz
    limits (-20.0 10.0)
           (0.0 20.0)
  end
  begin
     id 18 
     name lhumerus
     direction 1 -4.48965e-011 -2.68786e-027   
     length 5.11878   
     axis -180 -30 -90   XYZ
    dof rx ry rz
    limits (-60.0 90.0)
           (-90.0 90.0)
           (-90.0 90.0)
  end
  begin
     id 19
     name lradius
     direction 1 -4.48965e-011 2.61168e-028   
     length 3.59971   
     axis -180 -30 -90   XYZ
    dof rx
    limits (-10.0 170.0)
  end
  begin
     id 20
     name lwrist
     direction 1 -4.48965e-011 1.58672e-027   
     length 1.79985   
     axis -1.65735e-015 90 90   XYZ
    dof ry
    limits (-180.0 0.0)
 end
  begin
     id 21 
     name lhand
     direction 1 -4.48942e-011 3.17344e-027   
     length 0.62877   
     axis -2.02492e-015 90 90   XYZ
    dof rx rz
    limits (-90.0 90.0)
           (-45.0 45.0)
  end
  begin
     id 22 
     name lfingers
     direction 1 -4.49011e-011 6.34687e-027   
     length 0.506931   
     axis -4.04985e-015 90 90   XYZ
    dof rx
    limits (0.0 90.0)
  end
  begin
     id 23
     name lthumb
     direction 0.707107 -6.34982e-011 0.707107   
     length 0.727854   
     axis -90 45 2.85299e-015   XYZ
    dof rx rz
    limits (-45.0 45.0)
           (-45.0 45.0)
  end
  begin
     id 24 
     name rclavicle
     direction -0.945647 0.32488 0.0143075   
     length 3.52737  
     axis 0 0 0   XYZ 
    dof ry rz
    limits (-10.0 20.0)
           (-20.0 0.0)
  end
  begin
     id 25 
     name rhumerus
     direction -1 -4.48962e-011 1.92182e-027  
     length 5.4902   
     axis -180 30 90   XYZ
    dof rx ry rz
    limits (-90.0 60.0)
           (-90.0 90.0)
           (-90.0 90.0)
  end
  begin
     id 26 
     name rradius
     direction -1 -4.48967e-011 -5.97193e-028   
     length 3.20659   
     axis -180 30 90   XYZ
    dof rx
    limits (-10.0 170.0)
  end
  begin
     id 27 
     name rwrist
     direction -1 -4.48964e-011 1.58672e-027   
     length 1.6033   
     axis -1.65735e-015 -90 -90   XYZ
    dof ry
    limits (-180.0 0.0)
  end
  begin
     id 28
     name rhand
     direction -1 -4.49006e-011 3.17344e-027   
     length 0.691885   
     axis -2.02492e-015 -90 -90   XYZ
    dof rx rz
    limits (-90.0 90.0)
           (-45.0 45.0)
  end
  begin
     id 29
     name rfingers
     direction -1 -4.48908e-011 6.34687e-027   
     length 0.557815   
     axis -4.04985e-015 -90 -90   XYZ
    dof rx
    limits (0.0 90.0)
  end
  begin
     id 30
     name rthumb
     direction -0.707107 -6.34999e-011 0.707107   
     length 0.800915   
     axis -90 -45 -2.85299e-015   XYZ
    dof rx rz
    limits (-45.0 45.0)
           (-45.0 45.0)
  end
:hierarchy
  begin
    root lhipjoint rhipjoint lowerback
    lhipjoint lfemur
    lfemur ltibia
    ltibia lfoot
    lfoot ltoes
    rhipjoint rfemur
    rfemur rtibia
    rtibia rfoot
    rfoot rtoes
    lowerback upperback
    upperback thorax
    thorax lowerneck lclavicle rclavicle
    lowerneck upperneck
    upperneck head
    lclavicle lhumerus
    lhumerus lradius
    lradius lwrist
    lwrist lhand lthumb
    lhand lfingers
    rclavicle rhumerus
    rhumerus rradius
    rradius rwrist
    rwrist rhand rthumb
    rhand rfingers
  end

#!OML:ASF I:\Actors\actors\Patient Classification 1\Patient 1\Session 1\Subject1.ASF
:FULLY-SPECIFIED
:DEGREES
67
root -0.463508 17.5221 7.15427 5.56098 0.252674 -6.54877
lowerback 3.72571 -0.626227 3.23911
upperback -7.7752 -0.387684 1.9089
thorax -10.3775 -0.354418 0.277147
lowerneck -10.4997 -5.48399 -3.50936
upperneck 22.5829 -8.58401 6.46061
head 9.25929 -3.6728 1.82585
rclavicle -8.69683e-015 1.03368e-014
rhumerus -36.1881 11.9138 -96.6246
rradius 78.5895
rwrist 37.62
rhand -0.284586 -37.8747
rfingers 7.12502
rthumb 25.3178 -66.2143
lclavicle -8.69683e-015 1.03368e-014
lhumerus -31.3627 -45.2699 112.763
lradius 74.4263
lwrist 56.8305
lhand -44.1438 -23.7286
lfingers 7.12502
lthumb -16.9596 5.55101
rfemur -0.940801 21.8924 25.014
rtibia 3.35742
rfoot -12.704 -22.0315
rtoes 2.12804
lfemur 7.89709 -41.1341 -16.8074
ltibia -4.27875
lfoot -16.4511 47.1818
ltoes 0.697106
68
root -0.475458 17.5239 7.14819 5.54573 0.0924256 -6.55131
lowerback 3.79823 -0.812352 3.24101
upperback -7.72324 -0.645295 1.82883
thorax -10.3692 -0.483647 0.223518
lowerneck -10.6712 -5.13793 -3.1937
upperneck 22.755 -8.17584 6.48106
head 9.31543 -3.44595 1.82541
rclavicle -8.94531e-016 -1.68967e-014
rhumerus -35.7393 11.6917 -95.5438
rradius 81.0593
rwrist 39.8291
rhand -1.86267 -39.1646
rfingers 7.12502
rthumb 23.8051 -67.7098
lclavicle -8.94531e-016 -1.68967e-014
lhumerus -29.3179 -47.6759 113.113
lradius 76.2191
lwrist 61.2587
lhand -45.0925 -25.2827
lfingers 7.12502
lthumb -17.8726 3.91601
rfemur -0.932081 21.9011 25.0588
rtibia 3.31001
rfoot -12.6116 -21.9362
rtoes 2.04875
lfemur 7.85337 -40.9558 -16.7333
ltibia -4.20439
lfoot -16.495 47.0939
ltoes 0.765117
69
root -0.487808 17.5258 7.14265 5.5647 -0.113737 -6.55317
lowerback 3.86064 -1.03926 3.21366
upperback -7.68152 -0.958913 1.77202
thorax -10.3674 -0.636803 0.21879
lowerneck -10.8256 -4.72794 -2.82831
upperneck 22.9598 -7.67775 6.44384
head 9.37188 -3.17868 1.80848
rclavicle -8.29926e-015 2.40529e-014
rhumerus -35.1643 11.7906 -94.2491
rradius 83.6003
rwrist 41.1641
rhand -3.93436 -40.1251
rfingers 7.12502
rthumb 21.817 -68.9154
lclavicle -8.29926e-015 2.40529e-014
lhumerus -27.0284 -49.9283 113.094
lradius 78.0051
lwrist 65.3582
lhand -45.9105 -26.925
lfingers 7.12502
lthumb -18.6596 2.20005
rfemur -0.960415 21.9177 25.0892
rtibia 3.25493
rfoot -12.5036 -21.8183
rtoes 1.94724
lfemur 7.76734 -40.7632 -16.6351
ltibia -4.11209
lfoot -16.5856 47.0168
ltoes 0.928417
70
root -0.500695 17.5276 7.13738 5.62115 -0.37283 -6.55547
lowerback 3.91924 -1.31316 3.14257
upperback -7.66032 -1.33661 1.75193
thorax -10.386 -0.816188 0.28705
lowerneck -10.958 -4.23685 -2.39317
upperneck 23.229 -7.06267 6.31171
head 9.43678 -2.86007 1.76204
rclavicle 7.60351e-015 1.64991e-014
rhumerus -34.3804 12.2355 -92.7354
rradius 86.1192
rwrist 41.8388
rhand -6.53876 -40.4213
rfingers 7.12502
rthumb 19.3144 -69.4821
lclavicle 7.60351e-015 1.64991e-014
lhumerus -24.485 -51.9404 112.702
lradius 79.7242
lwrist 68.7708
lhand -46.5846 -28.7796
lfingers 7.12502
lthumb -19.3079 0.281895
rfemur -1.04023 21.9414 25.1028
rtibia 3.20497
rfoot -12.3801 -21.6646
rtoes 1.80614
lfemur 7.63859 -40.5521 -16.5083
ltibia -4.00804
lfoot -16.7404 46.9519
ltoes 1.19304
71
root -0.514091 17.5295 7.13222 5.70721 -0.682968 -6.55711
lowerback 4.00291 -1.64464 2.99261
upperback -7.6723 -1.79218 1.79486
thorax -10.4528 -1.02452 0.479519
lowerneck -11.0421 -3.64995 -1.87292
upperneck 23.5703 -6.30315 6.04561
head 9.5076 -2.48078 1.67329
rclavicle 9.74045e-015 -3.69739e-014
rhumerus -33.2944 12.8856 -90.8968
rradius 88.576
rwrist 42.7434
rhand -8.43259 -39.5578
rfingers 7.12502
rthumb 17.4926 -68.7908
lclavicle 9.74045e-015 -3.69739e-014
lhumerus -21.7075 -53.6016 111.98
lradius 81.3352
lwrist 71.2246
lhand -47.0852 -30.7708
lfingers 7.12502
lthumb -19.7892 -1.75825
rfemur -1.16977 21.9745 25.1007
rtibia 3.1717
rfoot -12.247 -21.4732
rtoes 1.61963
lfemur 7.48257 -40.3187 -16.3603
ltibia -3.90368
lfoot -16.9657 46.8957
ltoes 1.57687
72
root -0.527932 17.5319 7.12711 5.81617 -1.04375 -6.55699
lowerback 4.11803 -2.02443 2.7522
upperback -7.71277 -2.31383 1.90975
thorax -10.5611 -1.25413 0.811878
lowerneck -11.0633 -2.97735 -1.26247
upperneck 23.9643 -5.40604 5.62543
head 9.57906 -2.0466 1.53273
rclavicle -1.41634e-014 6.55989e-015
rhumerus -31.8593 13.7044 -88.7596
rradius 90.8822
rwrist 43.9428
rhand -9.81809 -38.2235
rfingers 7.12502
rthumb 16.1588 -67.57
lclavicle -1.41634e-014 6.55989e-015
lhumerus -18.7298 -54.8687 110.998
lradius 82.831
lwrist 72.7006
lhand -47.391 -32.7014
lfingers 7.12502
lthumb -20.0831 -3.71936
rfemur -1.34757 22.0173 25.0843
rtibia 3.16811
rfoot -12.1107 -21.2384
rtoes 1.39832
lfemur 7.32594 -40.0765 -16.2068
ltibia -3.82012
lfoot -17.2618 46.8651
ltoes 2.10245
73
root -0.542206 17.5351 7.12223 5.93694 -1.45231 -6.55137
lowerback 4.24876 -2.4252 2.44649
upperback -7.75679 -2.86601 2.0753
thorax -10.67 -1.4901 1.24185
lowerneck -11.0361 -2.25283 -0.582534
upperneck 24.3767 -4.41537 5.07287
head 9.65063 -1.57798 1.34471
rclavicle 9.59136e-015 2.98177e-015
rhumerus -30.0462 14.6202 -86.3829
rradius 92.9783
rwrist 45.2029
rhand -10.969 -36.7659
rfingers 7.12502
rthumb 15.0503 -66.1989
lclavicle 9.59136e-015 2.98177e-015
lhumerus -15.5866 -55.764 109.82
lradius 84.2116
lwrist 73.3655
lhand -47.4896 -34.3696
lfingers 7.12502
lthumb -20.1779 -5.39751
rfemur -1.55714 22.0655 25.0548
rtibia 3.19193
rfoot -11.9725 -20.9585
rtoes 1.16651
lfemur 7.20102 -39.8494 -16.0741
ltibia -3.77183
lfoot -17.6125 46.886
ltoes 2.74774
74
root -0.55702 17.5387 7.11792 6.07193 -1.89603 -6.54486
lowerback 4.39089 -2.82405 2.09491
upperback -7.80249 -3.41714 2.28357
thorax -10.7729 -1.71891 1.74571
lowerneck -10.9711 -1.51205 0.101944
upperneck 24.788 -3.37586 4.43255
head 9.72584 -1.09701 1.12974
rclavicle -1.96051e-014 1.47101e-014
rhumerus -27.8905 15.5735 -83.8083
rradius 94.8187
rwrist 46.2886
rhand -12.0812 -36.2194
rfingers 7.12502
rthumb 13.9788 -65.7294
lclavicle -1.96051e-014 1.47101e-014
lhumerus -12.3852 -56.2867 108.588
lradius 85.4824
lwrist 73.4832
lhand -47.3425 -35.6067
lfingers 7.12502
lthumb -20.0366 -6.61978
rfemur -1.79015 22.1196 25.0199
rtibia 3.22985
rfoot -11.8336 -20.6493
rtoes 0.958999
lfemur 7.09817 -39.6356 -15.9506
ltibia -3.75668
lfoot -17.9805 46.9539
ltoes 3.45882
75
root -0.572339 17.5426 7.11457 6.21906 -2.35703 -6.54328
lowerback 4.52204 -3.18217 1.78388
upperback -7.83511 -3.9122 2.47928
thorax -10.8485 -1.92388 2.20636
lowerneck -10.9155 -0.805391 0.742598
upperneck 25.1921 -2.36953 3.78991
head 9.81769 -0.636333 0.916056
rclavicle -5.80948e-014 3.18055e-014
rhumerus -25.4784 16.4642 -81.1243
rradius 96.3665
rwrist 46.9081
rhand -13.6537 -36.371
rfingers 7.12502
rthumb 12.463 -65.9793
lclavicle -5.80948e-014 3.18055e-014
lhumerus -9.26057 -56.541 107.44
lradius 86.6585
lwrist 73.2842
lhand -46.9695 -36.3604
lfingers 7.12502
lthumb -19.6779 -7.33639
rfemur -2.02808 22.1844 24.9914
rtibia 3.2601
rfoot -11.6865 -20.3392
rtoes 0.753733
lfemur 7.00321 -39.4242 -15.8221
ltibia -3.76419
lfoot -18.3237 47.0512
ltoes 4.17208
76
root -0.588737 17.5473 7.11343 6.35351 -2.78062 -6.53696
lowerback 4.6396 -3.49604 1.53107
upperback -7.8423 -4.34654 2.63783
thorax -10.8874 -2.10595 2.5852
lowerneck -10.9085 -0.157333 1.30296
upperneck 25.5957 -1.43929 3.20289
head 9.93594 -0.212573 0.725904
rclavicle -3.96824e-014 4.90998e-014
rhumerus -22.9455 17.2547 -78.41
rradius 97.6522
rwrist 47.1396
rhand -15.5838 -37.0972
rfingers 7.12502
rthumb 10.6017 -66.8098
lclavicle -3.96824e-014 4.90998e-014
lhumerus -6.35021 -56.5692 106.514
lradius 87.7383
lwrist 72.8775
lhand -46.3959 -36.6536
lfingers 7.12502
lthumb -19.1264 -7.57409
rfemur -2.19814 22.2945 24.9858
rtibia 3.23153
rfoot -11.5342 -20.1219
rtoes 0.538267
lfemur 6.91062 -39.1748 -15.6872
ltibia -3.78023
lfoot -18.5257 47.1069
ltoes 4.71576
77
root -0.606073 17.5526 7.11481 6.47321 -3.13726 -6.5221
lowerback 4.76466 -3.78804 1.27847
upperback -7.83922 -4.7516 2.79818
thorax -10.9138 -2.27368 2.9624
lowerneck -10.9417 0.443597 1.76775
upperneck 26.0008 -0.562938 2.6601
head 10.0761 0.181207 0.561436
rclavicle -1.94809e-014 -2.8128e-014
rhumerus -20.3837 17.8993 -75.6775
rradius 98.7183
rwrist 47.072
rhand -17.7224 -38.1947
rfingers 7.12502
rthumb 8.53821 -68.0021
lclavicle -1.94809e-014 -2.8128e-014
lhumerus -3.78432 -56.2997 105.943
lradius 88.7143
lwrist 72.3304
lhand -45.6798 -36.6179
lfingers 7.12502
lthumb -18.4377 -7.47168
rfemur -2.28424 22.4434 25.0006
rtibia 3.12519
rfoot -11.3831 -20.0232
rtoes 0.32561
lfemur 6.77634 -38.8182 -15.5192
ltibia -3.77915
lfoot -18.5007 47.0425
ltoes 4.96343
78
root -0.624241 17.5586 7.11846 6.57663 -3.40925 -6.50114
lowerback 4.8962 -4.05393 1.05006
upperback -7.8241 -5.12072 2.94212
thorax -10.9297 -2.42678 3.30399
lowerneck -11.0252 0.985578 2.15505
upperneck 26.41 0.232507 2.18238
head 10.2384 0.536321 0.424463
rclavicle 6.50896e-014 2.48481e-015
rhumerus -17.9439 18.3822 -73.0503
rradius 99.6362
rwrist 46.9248
rhand -19.7013 -39.3829
rfingers 7.12502
rthumb 6.62821 -69.2592
lclavicle 6.50896e-014 2.48481e-015
lhumerus -1.64966 -55.7976 105.772
lradius 89.5858
lwrist 71.7118
lhand -44.9063 -36.4208
lfingers 7.12502
lthumb -17.6934 -7.20577
rfemur -2.28628 22.619 25.0372
rtibia 2.94169
rfoot -11.2422 -20.0463
rtoes 0.141782
lfemur 6.56625 -38.2966 -15.2902
ltibia -3.7395
lfoot -18.2225 46.7908
ltoes 4.83955
79
root -0.643161 17.5651 7.12362 6.66638 -3.60098 -6.47987
lowerback 5.02511 -4.28636 0.869049
upperback -7.78956 -5.44319 3.05268
thorax -10.9272 -2.56308 3.576
lowerneck -11.1605 1.45948 2.47653
upperneck 26.8109 0.922465 1.80103
head 10.4158 0.845926 0.321593
rclavicle 1.41597e-013 1.26228e-014
rhumerus -15.7113 18.5001 -70.6007
rradius 100.471
rwrist 46.9533
rhand -21.2264 -40.1751
rfingers 7.12502
rthumb 5.15574 -70.0923
lclavicle 1.41597e-013 1.26228e-014
lhumerus 0.0348445 -55.139 105.957
lradius 90.3534
lwrist 71.0621
lhand -44.1556 -36.1923
lfingers 7.12502
lthumb -16.971 -6.91374
rfemur -2.22817 22.8054 25.0945
rtibia 2.70621
rfoot -11.1143 -20.1633
rtoes -0.00965287
lfemur 6.26714 -37.5935 -14.9868
ltibia -3.64833
lfoot -17.7356 46.3314
ltoes 4.35183
80
root -0.662568 17.5717 7.12904 6.75557 -3.74046 -6.46163
lowerback 5.13745 -4.47361 0.736782
upperback -7.7325 -5.70331 3.12643
thorax -10.8978 -2.67566 3.76998
lowerneck -11.2986 1.85493 2.75632
upperneck 27.1367 1.49347 1.49785
head 10.5712 1.10368 0.239786
rclavicle 1.13059e-015 3.57812e-015
rhumerus -13.8051 18.3211 -68.4671
rradius 101.221
rwrist 46.9993
rhand -22.5279 -40.7537
rfingers 7.12502
rthumb 3.89899 -70.6978
lclavicle 1.13059e-015 3.57812e-015
lhumerus 1.28679 -54.39 106.419
lradius 91.0134
lwrist 70.4048
lhand -43.4858 -36.0416
lfingers 7.12502
lthumb -16.3261 -6.70883
rfemur -2.16319 22.9795 25.1582
rtibia 2.46523
rfoot -11.0001 -20.3127
rtoes -0.125218
lfemur 5.87635 -36.742 -14.6168
ltibia -3.49419
lfoot -17.1452 45.7002
ltoes 3.63046
81
root -0.682294 17.5782 7.1335 6.84485 -3.8617 -6.44524
lowerback 5.23634 -4.60387 0.643214
upperback -7.65099 -5.88586 3.16329
thorax -10.8426 -2.75633 3.88915
lowerneck -11.4143 2.16365 3.00224
upperneck 27.3665 1.93823 1.24827
head 10.6889 1.30469 0.167148
rclavicle 5.12864e-014 -2.27608e-014
rhumerus -12.3173 17.962 -66.7599
rradius 101.879
rwrist 46.7992
rhand -23.4409 -41.1811
rfingers 7.12502
rthumb 3.01734 -71.1395
lclavicle 5.12864e-014 -2.27608e-014
lhumerus 2.14266 -53.605 107.057
lradius 91.5602
lwrist 69.7279
lhand -42.9419 -36.0204
lfingers 7.12502
lthumb -15.8024 -6.64537
rfemur -2.12667 23.1127 25.2139
rtibia 2.25903
rfoot -10.8956 -20.426
rtoes -0.21813
lfemur 5.42582 -35.8071 -14.2177
ltibia -3.27676
lfoot -16.5448 44.9751
ltoes 2.79014
